<?xml version="1.0" encoding="UTF-8" standalone="no"?><svg xmlns="http://www.w3.org/2000/svg" xmlns:xlink="http://www.w3.org/1999/xlink" contentScriptType="application/ecmascript" contentStyleType="text/css" height="311px" preserveAspectRatio="none" style="width:752px;height:311px;" version="1.1" viewBox="0 0 752 311" width="752px" zoomAndPan="magnify"><defs><filter height="300%" id="f1n0hzitgcnx3k" width="300%" x="-1" y="-1"><feGaussianBlur result="blurOut" stdDeviation="2.0"/><feColorMatrix in="blurOut" result="blurOut2" type="matrix" values="0 0 0 0 0 0 0 0 0 0 0 0 0 0 0 0 0 0 .4 0"/><feOffset dx="4.0" dy="4.0" in="blurOut2" result="blurOut3"/><feBlend in="SourceGraphic" in2="blurOut3" mode="normal"/></filter></defs><g><!--MD5=[c83f54922bd1076e47c619e9ad7fd812]
class PaymentController--><rect codeLine="1" fill="#FEFECE" filter="url(#f1n0hzitgcnx3k)" height="60.8047" id="PaymentController" style="stroke:#A80036;stroke-width:1.5;" width="274" x="175" y="7"/><ellipse cx="250.25" cy="23" fill="#ADD1B2" rx="11" ry="11" style="stroke:#A80036;stroke-width:1.0;"/><path d="M253.2188,28.6406 Q252.6406,28.9375 252,29.0781 Q251.3594,29.2344 250.6563,29.2344 Q248.1563,29.2344 246.8281,27.5938 Q245.5156,25.9375 245.5156,22.8125 Q245.5156,19.6875 246.8281,18.0313 Q248.1563,16.375 250.6563,16.375 Q251.3594,16.375 252,16.5313 Q252.6563,16.6875 253.2188,16.9844 L253.2188,19.7031 Q252.5938,19.125 252,18.8594 Q251.4063,18.5781 250.7813,18.5781 Q249.4375,18.5781 248.75,19.6563 Q248.0625,20.7188 248.0625,22.8125 Q248.0625,24.9063 248.75,25.9844 Q249.4375,27.0469 250.7813,27.0469 Q251.4063,27.0469 252,26.7813 Q252.5938,26.5 253.2188,25.9219 L253.2188,28.6406 Z " fill="#000000"/><text fill="#000000" font-family="sans-serif" font-size="12" lengthAdjust="spacingAndGlyphs" textLength="115" x="270.75" y="27.1543">PaymentController</text><line style="stroke:#A80036;stroke-width:1.5;" x1="176" x2="448" y1="39" y2="39"/><line style="stroke:#A80036;stroke-width:1.5;" x1="176" x2="448" y1="47" y2="47"/><ellipse cx="186" cy="58" fill="#84BE84" rx="3" ry="3" style="stroke:#038048;stroke-width:1.0;"/><text fill="#000000" font-family="sans-serif" font-size="11" lengthAdjust="spacingAndGlyphs" textLength="248" x="195" y="61.2104">pay(payMethod:String, amount:long): String</text><!--MD5=[e40e28ce57f6508d69ea33363280f590]
class PaymentServiceFactory--><rect codeLine="5" fill="#FEFECE" filter="url(#f1n0hzitgcnx3k)" height="60.8047" id="PaymentServiceFactory" style="stroke:#A80036;stroke-width:1.5;" width="254" x="484" y="7"/><ellipse cx="534.25" cy="23" fill="#ADD1B2" rx="11" ry="11" style="stroke:#A80036;stroke-width:1.0;"/><path d="M537.2188,28.6406 Q536.6406,28.9375 536,29.0781 Q535.3594,29.2344 534.6563,29.2344 Q532.1563,29.2344 530.8281,27.5938 Q529.5156,25.9375 529.5156,22.8125 Q529.5156,19.6875 530.8281,18.0313 Q532.1563,16.375 534.6563,16.375 Q535.3594,16.375 536,16.5313 Q536.6563,16.6875 537.2188,16.9844 L537.2188,19.7031 Q536.5938,19.125 536,18.8594 Q535.4063,18.5781 534.7813,18.5781 Q533.4375,18.5781 532.75,19.6563 Q532.0625,20.7188 532.0625,22.8125 Q532.0625,24.9063 532.75,25.9844 Q533.4375,27.0469 534.7813,27.0469 Q535.4063,27.0469 536,26.7813 Q536.5938,26.5 537.2188,25.9219 L537.2188,28.6406 Z " fill="#000000"/><text fill="#000000" font-family="sans-serif" font-size="12" lengthAdjust="spacingAndGlyphs" textLength="145" x="554.75" y="27.1543">PaymentServiceFactory</text><line style="stroke:#A80036;stroke-width:1.5;" x1="485" x2="737" y1="39" y2="39"/><line style="stroke:#A80036;stroke-width:1.5;" x1="485" x2="737" y1="47" y2="47"/><text fill="#000000" font-family="sans-serif" font-size="11" lengthAdjust="spacingAndGlyphs" textLength="242" x="490" y="61.2104">create(payMethod:String): PaymentService</text><!--MD5=[04c986212dbd7a6edcbb0c84ee03c1fe]
class PaymentService--><rect codeLine="9" fill="#FEFECE" filter="url(#f1n0hzitgcnx3k)" height="60.8047" id="PaymentService" style="stroke:#A80036;stroke-width:1.5;" width="139" x="242.5" y="128"/><ellipse cx="261.1" cy="144" fill="#B4A7E5" rx="11" ry="11" style="stroke:#A80036;stroke-width:1.0;"/><path d="M257.0219,139.7656 L257.0219,137.6094 L264.4125,137.6094 L264.4125,139.7656 L261.9438,139.7656 L261.9438,147.8438 L264.4125,147.8438 L264.4125,150 L257.0219,150 L257.0219,147.8438 L259.4906,147.8438 L259.4906,139.7656 L257.0219,139.7656 Z " fill="#000000"/><text fill="#000000" font-family="sans-serif" font-size="12" font-style="italic" lengthAdjust="spacingAndGlyphs" textLength="99" x="275.9" y="148.1543">PaymentService</text><line style="stroke:#A80036;stroke-width:1.5;" x1="243.5" x2="380.5" y1="160" y2="160"/><line style="stroke:#A80036;stroke-width:1.5;" x1="243.5" x2="380.5" y1="168" y2="168"/><ellipse cx="253.5" cy="179" fill="#84BE84" rx="3" ry="3" style="stroke:#038048;stroke-width:1.0;"/><text fill="#000000" font-family="sans-serif" font-size="11" lengthAdjust="spacingAndGlyphs" textLength="113" x="262.5" y="182.2104">pay(amount): String</text><!--MD5=[20d3eed9b7197162237502c18d12059a]
class PaypalPaymentService--><rect codeLine="13" fill="#FEFECE" filter="url(#f1n0hzitgcnx3k)" height="48" id="PaypalPaymentService" style="stroke:#A80036;stroke-width:1.5;" width="172" x="7" y="249"/><ellipse cx="22" cy="265" fill="#ADD1B2" rx="11" ry="11" style="stroke:#A80036;stroke-width:1.0;"/><path d="M24.9688,270.6406 Q24.3906,270.9375 23.75,271.0781 Q23.1094,271.2344 22.4063,271.2344 Q19.9063,271.2344 18.5781,269.5938 Q17.2656,267.9375 17.2656,264.8125 Q17.2656,261.6875 18.5781,260.0313 Q19.9063,258.375 22.4063,258.375 Q23.1094,258.375 23.75,258.5313 Q24.4063,258.6875 24.9688,258.9844 L24.9688,261.7031 Q24.3438,261.125 23.75,260.8594 Q23.1563,260.5781 22.5313,260.5781 Q21.1875,260.5781 20.5,261.6563 Q19.8125,262.7188 19.8125,264.8125 Q19.8125,266.9063 20.5,267.9844 Q21.1875,269.0469 22.5313,269.0469 Q23.1563,269.0469 23.75,268.7813 Q24.3438,268.5 24.9688,267.9219 L24.9688,270.6406 Z " fill="#000000"/><text fill="#000000" font-family="sans-serif" font-size="12" lengthAdjust="spacingAndGlyphs" textLength="140" x="36" y="269.1543">PaypalPaymentService</text><line style="stroke:#A80036;stroke-width:1.5;" x1="8" x2="178" y1="281" y2="281"/><line style="stroke:#A80036;stroke-width:1.5;" x1="8" x2="178" y1="289" y2="289"/><!--MD5=[c74d347f3551e12ae5307e981cd49cc8]
class CreditcardPaymentService--><rect codeLine="15" fill="#FEFECE" filter="url(#f1n0hzitgcnx3k)" height="48" id="CreditcardPaymentService" style="stroke:#A80036;stroke-width:1.5;" width="196" x="214" y="249"/><ellipse cx="229" cy="265" fill="#ADD1B2" rx="11" ry="11" style="stroke:#A80036;stroke-width:1.0;"/><path d="M231.9688,270.6406 Q231.3906,270.9375 230.75,271.0781 Q230.1094,271.2344 229.4063,271.2344 Q226.9063,271.2344 225.5781,269.5938 Q224.2656,267.9375 224.2656,264.8125 Q224.2656,261.6875 225.5781,260.0313 Q226.9063,258.375 229.4063,258.375 Q230.1094,258.375 230.75,258.5313 Q231.4063,258.6875 231.9688,258.9844 L231.9688,261.7031 Q231.3438,261.125 230.75,260.8594 Q230.1563,260.5781 229.5313,260.5781 Q228.1875,260.5781 227.5,261.6563 Q226.8125,262.7188 226.8125,264.8125 Q226.8125,266.9063 227.5,267.9844 Q228.1875,269.0469 229.5313,269.0469 Q230.1563,269.0469 230.75,268.7813 Q231.3438,268.5 231.9688,267.9219 L231.9688,270.6406 Z " fill="#000000"/><text fill="#000000" font-family="sans-serif" font-size="12" lengthAdjust="spacingAndGlyphs" textLength="164" x="243" y="269.1543">CreditcardPaymentService</text><line style="stroke:#A80036;stroke-width:1.5;" x1="215" x2="409" y1="281" y2="281"/><line style="stroke:#A80036;stroke-width:1.5;" x1="215" x2="409" y1="289" y2="289"/><!--MD5=[138de5675dfdc6f601716bbbaf57331a]
class WireTransferPaymentService--><rect codeLine="17" fill="#FEFECE" filter="url(#f1n0hzitgcnx3k)" height="48" id="WireTransferPaymentService" style="stroke:#A80036;stroke-width:1.5;" width="210" x="445" y="249"/><ellipse cx="460" cy="265" fill="#ADD1B2" rx="11" ry="11" style="stroke:#A80036;stroke-width:1.0;"/><path d="M462.9688,270.6406 Q462.3906,270.9375 461.75,271.0781 Q461.1094,271.2344 460.4063,271.2344 Q457.9063,271.2344 456.5781,269.5938 Q455.2656,267.9375 455.2656,264.8125 Q455.2656,261.6875 456.5781,260.0313 Q457.9063,258.375 460.4063,258.375 Q461.1094,258.375 461.75,258.5313 Q462.4063,258.6875 462.9688,258.9844 L462.9688,261.7031 Q462.3438,261.125 461.75,260.8594 Q461.1563,260.5781 460.5313,260.5781 Q459.1875,260.5781 458.5,261.6563 Q457.8125,262.7188 457.8125,264.8125 Q457.8125,266.9063 458.5,267.9844 Q459.1875,269.0469 460.5313,269.0469 Q461.1563,269.0469 461.75,268.7813 Q462.3438,268.5 462.9688,267.9219 L462.9688,270.6406 Z " fill="#000000"/><text fill="#000000" font-family="sans-serif" font-size="12" lengthAdjust="spacingAndGlyphs" textLength="178" x="474" y="269.1543">WireTransferPaymentService</text><line style="stroke:#A80036;stroke-width:1.5;" x1="446" x2="654" y1="281" y2="281"/><line style="stroke:#A80036;stroke-width:1.5;" x1="446" x2="654" y1="289" y2="289"/><!--MD5=[dcf2dedbe0e707bb6e6d5bfaad9b9602]
reverse link PaymentService to PaypalPaymentService--><path d="M235.7332,198.3747 C203.5423,215.205 167.1184,234.2486 139.1229,248.8855 " fill="none" id="PaymentService-backto-PaypalPaymentService" style="stroke:#A80036;stroke-width:1.0;stroke-dasharray:7.0,7.0;"/><polygon fill="none" points="232.6326,192.0968,253.5997,189.0335,239.1192,204.5034,232.6326,192.0968" style="stroke:#A80036;stroke-width:1.0;"/><!--MD5=[312f390c7cb395f48153146c6268944b]
reverse link PaymentService to CreditcardPaymentService--><path d="M312,209.2346 C312,222.9779 312,237.2288 312,248.7634 " fill="none" id="PaymentService-backto-CreditcardPaymentService" style="stroke:#A80036;stroke-width:1.0;stroke-dasharray:7.0,7.0;"/><polygon fill="none" points="305.0001,209.1839,312,189.1839,319.0001,209.1839,305.0001,209.1839" style="stroke:#A80036;stroke-width:1.0;"/><!--MD5=[f0fa7adb1b1eb508f6470b115c0937f5]
reverse link PaymentService to WireTransferPaymentService--><path d="M393.9085,197.9056 C429.13,214.8504 469.1682,234.1124 499.8756,248.8855 " fill="none" id="PaymentService-backto-WireTransferPaymentService" style="stroke:#A80036;stroke-width:1.0;stroke-dasharray:7.0,7.0;"/><polygon fill="none" points="390.455,204.0121,375.467,189.0335,396.5245,191.3962,390.455,204.0121" style="stroke:#A80036;stroke-width:1.0;"/><!--MD5=[9c3e44ac76ea232e0d18c84524e1f533]
link PaymentController to PaymentServiceFactory--><path codeLine="19" d="M449.2363,37.5 C459.1014,37.5 468.9664,37.5 478.8315,37.5 " fill="none" id="PaymentController-to-PaymentServiceFactory" style="stroke:#A80036;stroke-width:1.0;"/><polygon fill="#A80036" points="483.9902,37.5,474.9902,33.5,478.9902,37.5,474.9902,41.5,483.9902,37.5" style="stroke:#A80036;stroke-width:1.0;"/><!--MD5=[69fcafa38d1b1e331753b4931f3a1e98]
link PaymentController to PaymentService--><path codeLine="20" d="M312,68.0334 C312,84.6565 312,105.3175 312,122.6964 " fill="none" id="PaymentController-to-PaymentService" style="stroke:#A80036;stroke-width:1.0;"/><polygon fill="#A80036" points="312,127.9764,316,118.9764,312,122.9764,308,118.9764,312,127.9764" style="stroke:#A80036;stroke-width:1.0;"/><!--MD5=[930f05954fc631c681b981b9d47033af]
@startuml
class PaymentController {
  + pay(payMethod:String, amount:long): String
}

class PaymentServiceFactory {
  create(payMethod:String): PaymentService
}

interface PaymentService {
  + pay(amount): String
}

class PaypalPaymentService implements PaymentService {}

class CreditcardPaymentService implements PaymentService {}

class WireTransferPaymentService implements PaymentService {}

PaymentController -> PaymentServiceFactory
PaymentController - -> PaymentService
@enduml

PlantUML version 1.2020.22(Sun Dec 06 09:36:27 UTC 2020)
(GPL source distribution)
Java Runtime: OpenJDK Runtime Environment
JVM: OpenJDK 64-Bit Server VM
Default Encoding: UTF-8
Language: en
Country: US
--></g></svg>